<svg version="1.1" viewBox="0.0 0.0 960.0 540.0" fill="none" stroke="none" stroke-linecap="square" stroke-miterlimit="10" xmlns:xlink="http://www.w3.org/1999/xlink" xmlns="http://www.w3.org/2000/svg"><clipPath id="g2e7225478c2_0_0.0"><path d="m0 0l960.0 0l0 540.0l-960.0 0l0 -540.0z" clip-rule="nonzero"/></clipPath><g clip-path="url(#g2e7225478c2_0_0.0)"><path fill="#000000" fill-opacity="0.0" d="m0 0l960.0 0l0 540.0l-960.0 0z" fill-rule="evenodd"/><path fill="#000000" fill-opacity="0.0" d="m9.84252 258.2756l894.55115 0l0 120.06299l-894.55115 0z" fill-rule="evenodd"/><path fill="#666666" d="m171.78047 186.92047q-0.96875 1.625 -2.046875 2.4375q-1.078125 0.8125 -2.8125 0.8125q-1.828125 0 -4.265625 -1.828125q-2.421875 -1.84375 -6.15625 -4.0625q-3.71875 -2.21875 -8.96875 -4.046875q-5.234375 -1.84375 -12.6875 -1.84375q-7.0156174 0 -12.421867 1.890625q-5.390625 1.890625 -9.015625 5.140625q-3.609375 3.234375 -5.453125 7.609375q-1.828125 4.375 -1.828125 9.453125q0 6.46875 3.171875 10.734375q3.1875 4.265625 8.421875 7.296875q5.25 3.03125 11.890617 5.25q6.640625 2.203125 13.609375 4.578125q6.96875 2.375 13.609375 5.34375q6.640625 2.96875 11.875 7.515625q5.234375 4.53125 8.421875 11.125q3.1875 6.578125 3.1875 16.1875q0 10.15625 -3.453125 19.0625q-3.453125 8.90625 -10.09375 15.5q-6.640625 6.59375 -16.3125 10.375q-9.671875 3.78125 -21.984375 3.78125q-14.999992 0 -27.374992 -5.453125q-12.359375 -5.46875 -21.109375 -14.75l6.046875 -9.9375q0.859375 -1.1875 2.09375 -2.0q1.25 -0.8125 2.765625 -0.8125q2.265625 0 5.171875 2.4375q2.921875 2.421875 7.296875 5.34375q4.375 2.921875 10.578125 5.359375q6.21875 2.421875 15.187492 2.421875q7.453125 0 13.28125 -2.046875q5.828125 -2.0625 9.875 -5.78125q4.0625 -3.734375 6.21875 -8.90625q2.15625 -5.1875 2.15625 -11.5625q0 -7.015625 -3.1875 -11.5q-3.1875 -4.484375 -8.375 -7.5q-5.171875 -3.03125 -11.8125 -5.140625q-6.640625 -2.109375 -13.609367 -4.3125q-6.96875 -2.21875 -13.609375 -5.125q-6.640625 -2.921875 -11.828125 -7.5625q-5.1875 -4.65625 -8.375 -11.625q-3.1875 -6.96875 -3.1875 -17.21875q0 -8.203125 3.1875 -15.875q3.1875 -7.671875 9.234375 -13.609375q6.046875 -5.9375 14.953125 -9.5q8.921875 -3.5625 20.468742 -3.5625q12.96875 0 23.65625 4.109375q10.6875 4.09375 18.6875 11.859375l-5.078125 9.9375zm75.49567 19.453125q9.82814 0 18.14064 3.296875q8.3125 3.28125 14.359375 9.5q6.046875 6.203125 9.453125 15.328125q3.40625 9.125 3.40625 20.796875q0 4.53125 -0.984375 6.046875q-0.96875 1.515625 -3.65625 1.515625l-72.79689 0q0.21875 10.359375 2.8125 18.03125q2.59375 7.671875 7.125 12.796875q4.53125 5.125 10.796875 7.671875q6.265625 2.53125 14.046875 2.53125q7.2343903 0 12.468765 -1.671875q5.234375 -1.671875 9.015625 -3.609375q3.78125 -1.953125 6.3125 -3.625q2.546875 -1.671875 4.375 -1.671875q2.390625 0 3.671875 1.828125l5.40625 7.015625q-3.5625 4.328125 -8.53125 7.515625q-4.96875 3.1875 -10.640625 5.234375q-5.671875 2.046875 -11.71875 3.078125q-6.0468903 1.03125 -11.98439 1.03125q-11.34375 0 -20.90625 -3.828125q-9.546875 -3.84375 -16.515625 -11.234375q-6.96875 -7.40625 -10.859375 -18.3125q-3.890625 -10.90625 -3.890625 -25.0625q0 -11.4375 3.515625 -21.375q3.515625 -9.9375 10.09375 -17.21875q6.59375 -7.296875 16.09375 -11.453125q9.515625 -4.15625 21.390625 -4.15625zm0.4375 14.140625q-13.9375 0 -21.9375 8.046875q-7.984375 8.046875 -9.9375 22.296875l59.51564 0q0 -6.6875 -1.84375 -12.25q-1.828125 -5.5625 -5.390625 -9.609375q-3.5625 -4.0625 -8.703125 -6.265625q-5.1250153 -2.21875 -11.70314 -2.21875zm69.43407 96.984375l0 -109.40625l11.015625 0q3.140625 0 4.328125 1.1875q1.1875 1.1875 1.609375 4.109375l1.296875 17.0625q5.625 -11.453125 13.875 -17.875q8.265625 -6.421875 19.390625 -6.421875q4.53125 0 8.203125 1.03125q3.671875 1.015625 6.8125 2.859375l-2.484375 14.359375q-0.75 2.703125 -3.34375 2.703125q-1.515625 0 -4.65625 -1.03125q-3.125 -1.03125 -8.734375 -1.03125q-10.046875 0 -16.796875 5.84375q-6.75 5.828125 -11.296875 16.953125l0 69.65625l-19.21875 0zm130.3605 -111.125q9.828125 0 18.140625 3.296875q8.3125 3.28125 14.359375 9.5q6.046875 6.203125 9.453125 15.328125q3.40625 9.125 3.40625 20.796875q0 4.53125 -0.984375 6.046875q-0.96875 1.515625 -3.65625 1.515625l-72.796875 0q0.21875 10.359375 2.8125 18.03125q2.59375 7.671875 7.125 12.796875q4.53125 5.125 10.796875 7.671875q6.265625 2.53125 14.046875 2.53125q7.234375 0 12.46875 -1.671875q5.234375 -1.671875 9.015625 -3.609375q3.78125 -1.953125 6.3125 -3.625q2.546875 -1.671875 4.375 -1.671875q2.390625 0 3.671875 1.828125l5.40625 7.015625q-3.5625 4.328125 -8.53125 7.515625q-4.96875 3.1875 -10.640625 5.234375q-5.671875 2.046875 -11.71875 3.078125q-6.046875 1.03125 -11.984375 1.03125q-11.34375 0 -20.90625 -3.828125q-9.546875 -3.84375 -16.515625 -11.234375q-6.96875 -7.40625 -10.859375 -18.3125q-3.890625 -10.90625 -3.890625 -25.0625q0 -11.4375 3.515625 -21.375q3.515625 -9.9375 10.09375 -17.21875q6.59375 -7.296875 16.09375 -11.453125q9.515625 -4.15625 21.390625 -4.15625zm0.4375 14.140625q-13.9375 0 -21.9375 8.046875q-7.984375 8.046875 -9.9375 22.296875l59.515625 0q0 -6.6875 -1.84375 -12.25q-1.828125 -5.5625 -5.390625 -9.609375q-3.5625 -4.0625 -8.703125 -6.265625q-5.125 -2.21875 -11.703125 -2.21875zm238.77939 -14.140625q11.984375 0 21.65625 4.0q9.671875 3.984375 16.421875 11.328125q6.75 7.34375 10.359375 17.765625q3.625 10.421875 3.625 23.28125q0 12.953125 -3.625 23.328125q-3.609375 10.359375 -10.359375 17.703125q-6.75 7.34375 -16.421875 11.296875q-9.671875 3.9375 -21.65625 3.9375q-11.984375 0 -21.65625 -3.9375q-9.65625 -3.953125 -16.46875 -11.296875q-6.796875 -7.34375 -10.46875 -17.703125q-3.671875 -10.375 -3.671875 -23.328125q0 -12.859375 3.671875 -23.28125q3.671875 -10.421875 10.46875 -17.765625q6.8125 -7.34375 16.46875 -11.328125q9.671875 -4.0 21.65625 -4.0zm0 97.625q16.203125 0 24.1875 -10.84375q8.0 -10.859375 8.0 -30.296875q0 -19.5625 -8.0 -30.46875q-7.984375 -10.90625 -24.1875 -10.90625q-8.203125 0 -14.25 2.8125q-6.046875 2.8125 -10.109375 8.109375q-4.046875 5.28125 -6.046875 13.0q-2.0 7.71875 -2.0 17.453125q0 9.71875 2.0 17.390625q2.0 7.65625 6.046875 12.90625q4.0625 5.234375 10.109375 8.046875q6.046875 2.796875 14.25 2.796875zm138.45544 -77.875q-1.296875 2.390625 -4.0 2.390625q-1.609375 0 -3.671875 -1.1875q-2.046875 -1.203125 -5.015625 -2.65625q-2.96875 -1.453125 -7.078125 -2.6875q-4.09375 -1.25 -9.71875 -1.25q-4.859375 0 -8.75 1.25q-3.890625 1.234375 -6.640625 3.390625q-2.75 2.15625 -4.21875 5.03125q-1.453125 2.859375 -1.453125 6.203125q0 4.203125 2.421875 7.015625q2.4375 2.8125 6.4375 4.875q4.0 2.046875 9.078125 3.609375q5.078125 1.5625 10.421875 3.34375q5.34375 1.78125 10.421875 3.953125q5.078125 2.15625 9.0625 5.390625q4.0 3.234375 6.421875 7.9375q2.4375 4.703125 2.4375 11.28125q0 7.5625 -2.703125 14.0q-2.703125 6.421875 -8.0 11.125q-5.28125 4.6875 -12.953125 7.390625q-7.65625 2.703125 -17.703125 2.703125q-11.453125 0 -20.75 -3.71875q-9.28125 -3.734375 -15.75 -9.578125l4.53125 -7.34375q0.859375 -1.390625 2.046875 -2.140625q1.1875 -0.765625 3.140625 -0.765625q1.9375 0 4.09375 1.515625q2.171875 1.5 5.25 3.34375q3.078125 1.828125 7.4375 3.34375q4.375 1.515625 10.96875 1.515625q5.609375 0 9.828125 -1.453125q4.21875 -1.46875 7.015625 -3.953125q2.8125 -2.484375 4.15625 -5.71875q1.359375 -3.234375 1.359375 -6.90625q0 -4.546875 -2.4375 -7.515625q-2.421875 -2.96875 -6.421875 -5.0625q-4.0 -2.109375 -9.125 -3.671875q-5.125 -1.578125 -10.484375 -3.296875q-5.34375 -1.734375 -10.46875 -3.953125q-5.125 -2.21875 -9.125 -5.5625q-4.0 -3.34375 -6.4375 -8.25q-2.421875 -4.921875 -2.421875 -11.9375q0 -6.265625 2.59375 -12.046875q2.59375 -5.78125 7.5625 -10.15625q4.96875 -4.375 12.203125 -6.953125q7.234375 -2.59375 16.515625 -2.59375q10.8125 0 19.390625 3.40625q8.59375 3.390625 14.859375 9.328125l-4.328125 7.015625z" fill-rule="nonzero"/><path fill="#000000" fill-opacity="0.0" d="m317.95013 351.728c19.4729 1.1698608 87.26761 -4.6805115 116.83734 7.0191956c29.569702 11.6996765 37.503204 91.64917 60.580994 63.178986c23.07782 -28.470215 47.59619 -251.5503 77.88568 -234.00021c30.28955 17.550064 76.446106 316.6808 103.8515 339.3006c27.405396 22.619812 41.829895 -176.28128 60.580994 -203.58163c18.75116 -27.300323 26.10669 32.75937 51.92578 39.779602c25.819092 7.020233 85.8241 1.9515381 102.98889 2.3418274" fill-rule="evenodd"/><path stroke="#38761d" stroke-width="16.0" stroke-linejoin="round" stroke-linecap="butt" d="m317.95013 351.728c19.4729 1.1698608 87.26761 -4.6805115 116.83734 7.0191956c29.569702 11.6996765 37.503204 91.64917 60.580994 63.178986c23.07782 -28.470215 47.59619 -251.5503 77.88568 -234.00021c30.28955 17.550064 76.446106 316.6808 103.8515 339.3006c27.405396 22.619812 41.829895 -176.28128 60.580994 -203.58163c18.75116 -27.300323 26.10669 32.75937 51.92578 39.779602c25.819092 7.020233 85.8241 1.9515381 102.98889 2.3418274" fill-rule="evenodd"/></g></svg>
